<svg width="32" height="32" viewBox="0 0 32 32" fill="none" xmlns="http://www.w3.org/2000/svg">
  <!-- Background Circle -->
  <circle cx="16" cy="16" r="16" fill="url(#bgGradient)"/>
  
  <!-- Main Leaf Shape -->
  <path d="M16 8C12.5 8 10 9.5 10 12C10 14.5 11.2 16.2 12.6 17.5C13 18.8 13.5 20 14 21.2C14.3 21.8 15.6 22.2 16 23C16.4 22.2 17.7 21.8 18 21.2C18.5 20 19 18.8 19.4 17.5C20.8 16.2 22 14.5 22 12C22 9.5 19.5 8 16 8Z" fill="url(#leafGradient)"/>
  
  <!-- Leaf Vein -->
  <path d="M16 9L16 18.5" stroke="url(#veinGradient)" stroke-width="1" stroke-linecap="round"/>
  
  <defs>
    <radialGradient id="bgGradient" cx="0.3" cy="0.3" r="0.8">
      <stop offset="0%" stop-color="#FEF3C7"/>
      <stop offset="100%" stop-color="#EAB308"/>
    </radialGradient>
    
    <linearGradient id="leafGradient" x1="0%" y1="0%" x2="100%" y2="100%">
      <stop offset="0%" stop-color="#FACC15"/>
      <stop offset="50%" stop-color="#EAB308"/>
      <stop offset="100%" stop-color="#CA8A04"/>
    </linearGradient>
    
    <linearGradient id="veinGradient" x1="0%" y1="0%" x2="100%" y2="100%">
      <stop offset="0%" stop-color="#FEF3C7"/>
      <stop offset="100%" stop-color="#FDE047"/>
    </linearGradient>
  </defs>
</svg>